<svg fill="none" height="611" viewBox="0 0 1376 611" width="1376" xmlns="http://www.w3.org/2000/svg" xmlns:xlink="http://www.w3.org/1999/xlink"><clipPath id="a"><path d="m0 0h1376v611h-1376z"/></clipPath><g clip-path="url(#a)"><path d="m741.93 468.46c81.832 0 148.17-8.968 148.17-20.03s-66.338-20.03-148.17-20.03-148.17 8.968-148.17 20.03 66.338 20.03 148.17 20.03z" fill="#e6e7e8"/><path clip-rule="evenodd" d="m894.8 276.05c3.5-20.66 5.25-45.36 5.25-74.08 0-52.89-6.66-93.79-19.96-122.69-7.71-16.64-17.12-30.6-28.24-41.9-11.13-11.3-24.04-19.88-38.75-25.75-14.71-5.86998-31.09-8.79998-49.13-8.79998-27.32 0-50.83 6.61-70.54 19.82998-19.71 13.22-34.73 32.44-45.06 57.66-5.96 15.24-10.34 33.45-13.14 54.64-2.8 21.2-4.2 45.02-4.2 71.46 0 20.49 1.27 39.54 3.81 57.14 2.53 17.6 6.52 33.67 11.95 48.21 10.69 26.63 26.58 47.47 47.69 62.53s44.97 22.59 71.59 22.59c23.12 0 44.14-5.6 63.05-16.81 18.92-11.2 34.33-27.14 46.24-47.81 9.46-16.81 15.93-35.55 19.44-56.22zm-72.51-158.03c3.85 20.41 5.78 46.64 5.78 78.69 0 33.81-1.84 61.13-5.52 81.96-3.68 20.85-10.08 36.87-19.18 48.08-9.11 11.21-21.72 16.81-37.83 16.81-15.59 0-27.94-5.39-37.04-16.16-9.11-10.77-15.59-26.66-19.44-47.68s-5.78-47.99-5.78-80.92c0-48.51 4.51-84.42 13.53-107.71s25.09-34.94 48.21-34.94c16.11 0 28.72 5.21 37.83 15.63 9.11 10.43 15.58 25.84 19.44 46.24z" fill="#78dfe8" fill-rule="evenodd"/><path clip-rule="evenodd" d="m692.84 376.6c21.49 15.33 46.12 23.11 73.22 23.11 23.53 0 45.22-5.79 64.47-17.19s35.14-27.82 47.26-48.85c9.56-17 16.21-36.22 19.76-57.13 3.51-20.71 5.29-45.79 5.29-74.55 0-53.06-6.8-94.73-20.22-123.87-7.8-16.86-17.49-31.22-28.79-42.7-11.34-11.52-24.7-20.4-39.71-26.38997-14.98-5.97-31.86-9.0000007-50.17-9.0000007-27.76 0-52.02 6.8300007-72.1 20.3099707-20.09 13.47-35.6 33.3-46.11 58.97-6.01 15.39-10.49 33.99-13.3 55.3-2.81 21.22-4.23 45.38-4.23 71.83 0 20.53 1.29 39.89 3.84 57.54 2.56 17.72 6.63 34.13 12.13 48.85 10.83 27.01 27.21 48.47 48.66 63.77zm2.15-351.6c19.14-12.85 42.34-19.35997 68.97-19.35997 17.6 0 33.78 2.89 48.08 8.60997 14.28 5.7 27 14.15 37.79 25.11 10.84 11.02 20.16 24.85 27.69 41.11 13.08 28.39 19.71 69.27 19.71 121.51 0 28.44-1.75 53.21-5.21 73.61-3.44 20.27-9.87 38.88-19.1 55.29-11.62 20.15-26.83 35.9-45.24 46.8-18.39 10.9-39.12 16.42-61.62 16.42-25.9 0-49.43-7.43-69.95-22.07-20.57-14.68-36.28-35.3-46.69-61.23-5.33-14.28-9.3-30.3-11.8-47.62-2.51-17.39-3.78-36.48-3.78-56.74 0-26.2 1.41-50.12 4.18-71.09 2.75-20.86 7.12-39.03 12.95-53.95 10.07-24.58 24.88-43.55 44.02-56.4zm70.55 321.38c-16.39 0-29.57-5.77-39.19-17.15-9.39-11.1-16.14-27.58-20.06-48.99-3.87-21.08-5.83-48.47-5.83-81.42 0-48.64 4.62-85.22 13.72-108.73 9.44-24.38 26.54-36.74 50.83-36.74 16.89 0 30.33 5.58 39.95 16.59 9.4 10.75 16.16 26.76 20.09 47.56 3.87 20.51 5.83 47.16 5.83 79.21 0 33.8-1.87 61.55-5.56 82.45-3.74 21.22-10.39 37.83-19.76 49.36-9.63 11.86-23.1 17.86-40.02 17.86zm-46.12-254.26c8.64-22.31 23.55-33.15 45.59-33.15 15.41 0 27.09 4.8 35.71 14.67 8.72 9.99 15.05 25.1 18.79 44.91 3.8 20.16 5.73 46.46 5.73 78.16 0 33.48-1.84 60.89-5.47 81.48-3.57 20.26-9.83 36.01-18.59 46.79-8.63 10.62-20.29 15.78-35.65 15.78-14.86 0-26.28-4.96-34.9-15.16-8.74-10.34-15.08-25.94-18.82-46.37-3.8-20.74-5.73-47.8-5.73-80.41 0-47.95 4.49-83.84 13.34-106.7z" fill="#1a4a67" fill-rule="evenodd"/><path d="m1029.4 566.24c81.83 0 148.17-8.968 148.17-20.03s-66.34-20.03-148.17-20.03c-81.832 0-148.17 8.968-148.17 20.03s66.338 20.03 148.17 20.03z" fill="#e6e7e8"/><path clip-rule="evenodd" d="m1071.59 423.26v48.87c0 13.14 3.02 23.08 9.07 29.81 6.04 6.74 13.97 10.11 23.78 10.11 9.97 0 17.95-3.28 23.9-9.85s8.93-16.59 8.93-30.08v-48.87h16.02c13.31 0 23.29-2.32 29.95-6.96 6.65-4.64 9.98-12.04 9.98-22.2 0-12.43-4.08-20.49-12.22-24.17s-18.96-5.52-32.44-5.52h-11.3v-203.35c0-30.47-13.31-45.71-39.93-45.71-8.24 0-15.29 2.76-21.15 8.28-5.87 5.52-13.36 14.41-22.46 26.67l-139.24 186.26c-3.85 5.09-7.09 9.38-9.72 12.88s-5.17 7.14-7.62 10.9c-2.45 3.77-4.29 7.35-5.52 10.77s-1.84 6.79-1.84 10.12c0 12.97 4.16 23.21 12.48 30.74 8.32 7.54 20.8 11.3 37.44 11.3zm0-58.84h-112.97l112.97-152.64z" fill="#78dfe8" fill-rule="evenodd"/><path clip-rule="evenodd" d="m1078.56 503.82c6.57 7.33 15.27 11.05 25.87 11.05 10.76 0 19.5-3.63 25.96-10.77 6.41-7.07 9.66-17.83 9.66-31.97v-46.06h13.22c13.84 0 24.45-2.52 31.56-7.47 7.43-5.17 11.19-13.41 11.19-24.5 0-13.58-4.66-22.57-13.87-26.73-8.47-3.83-19.78-5.77-33.6-5.77h-8.49v-200.54c0-32.2-14.38-48.52-42.74-48.52-8.93 0-16.7 3.04-23.07 9.04-5.97 5.6-13.63 14.7-22.79 27.03l-139.23 186.25-1.678 2.218c-3.125 4.131-5.813 7.684-8.052 10.672-2.67 3.56-5.26 7.28-7.72 11.05-2.55 3.93-4.51 7.75-5.81 11.36-1.33 3.69-2 7.42-2 11.06 0 13.73 4.51 24.77 13.4 32.82 8.82 7.98 22.04 12.03 39.33 12.03h129.08v46.06c0 13.79 3.29 24.45 9.78 31.69zm-.45-378.14c5.37-5.05 11.66-7.51 19.22-7.51 24.98 0 37.12 14.03 37.12 42.9v206.15h14.11c13.03 0 23.55 1.78 31.29 5.27 7.11 3.21 10.56 10.28 10.56 21.61 0 9.27-2.87 15.77-8.78 19.89-6.14 4.29-15.68 6.46-28.34 6.46h-18.84v51.68c0 12.7-2.76 22.19-8.2 28.19-5.44 6.01-12.58 8.93-21.82 8.93-9.05 0-16.14-3-21.68-9.18-5.54-6.17-8.35-15.58-8.35-27.94v-51.68h-134.7c-15.85 0-27.8-3.56-35.55-10.57-7.77-7.04-11.55-16.41-11.55-28.65 0-2.99.56-6.07 1.67-9.16 1.15-3.2 2.91-6.63 5.23-10.19 2.39-3.67 4.92-7.29 7.51-10.75 2.62-3.5 5.86-7.79 9.72-12.88l139.25-186.27c8.96-12.08 16.41-20.92 22.13-26.3zm-3.71 241.55h-121.35l121.35-163.97zm-5.62-5.62h-104.58l104.58-141.31z" fill="#1a4a67" fill-rule="evenodd"/><path d="m451.54 595.27c81.832 0 148.17-8.968 148.17-20.03s-66.338-20.03-148.17-20.03-148.17 8.968-148.17 20.03 66.338 20.03 148.17 20.03z" fill="#e6e7e8"/><path clip-rule="evenodd" d="m495.66 455.1v48.87c0 13.14 3.02 23.08 9.08 29.82 6.05 6.74 13.97 10.11 23.78 10.11 9.99 0 17.95-3.28 23.91-9.85 5.95-6.57 8.93-16.59 8.93-30.08v-48.87h16.02c13.31 0 23.29-2.32 29.95-6.96 6.65-4.64 9.98-12.04 9.98-22.2 0-12.43-4.08-20.49-12.22-24.17-8.15-3.68-18.96-5.52-32.45-5.52h-11.3v-203.35c0-30.47-13.31-45.71-39.93-45.71-8.24 0-15.28 2.76-21.15 8.28s-13.35 14.41-22.46 26.67l-139.24 186.25c-3.85 5.09-7.09 9.38-9.72 12.88s-5.17 7.14-7.62 10.9c-2.46 3.77-4.3 7.35-5.52 10.77-1.23 3.42-1.84 6.79-1.84 10.12 0 12.97 4.16 23.21 12.48 30.74 8.32 7.54 20.8 11.3 37.44 11.3zm0-58.84h-112.97l112.97-152.64z" fill="#78dfe8" fill-rule="evenodd"/><path clip-rule="evenodd" d="m502.63 535.66c6.58 7.33 15.28 11.05 25.87 11.05 10.77 0 19.51-3.62 25.98-10.77 6.41-7.08 9.66-17.83 9.66-31.97v-46.06h13.21c13.84 0 24.45-2.52 31.56-7.47 7.43-5.17 11.19-13.41 11.19-24.5 0-13.58-4.67-22.57-13.87-26.73-8.47-3.83-19.78-5.77-33.6-5.77h-8.49v-200.54c0-32.19-14.38-48.52-42.74-48.52-8.93 0-16.7 3.04-23.07 9.04-5.96 5.6-13.63 14.7-22.79 27.03l-139.23 186.25c-3.86 5.09-7.1 9.38-9.73 12.89-2.68 3.58-5.29 7.3-7.72 11.05-2.56 3.94-4.52 7.76-5.81 11.36-1.33 3.7-2 7.43-2 11.07 0 13.73 4.51 24.77 13.4 32.82 8.82 7.97 22.05 12.02 39.33 12.02h129.07v46.06c0 13.79 3.29 24.45 9.78 31.69zm-.45-378.14c5.38-5.05 11.67-7.51 19.23-7.51 24.98 0 37.12 14.03 37.1 42.9v206.16h14.11c13.02 0 23.55 1.78 31.29 5.27 7.11 3.21 10.56 10.28 10.56 21.61 0 9.27-2.87 15.77-8.78 19.89-6.14 4.29-15.68 6.46-28.34 6.46h-18.83v51.68c0 12.7-2.77 22.18-8.21 28.19s-12.58 8.93-21.82 8.93c-9.05 0-16.14-3.01-21.68-9.18-5.53-6.17-8.34-15.57-8.34-27.94v-51.68h-134.7c-15.85 0-27.8-3.56-35.55-10.57-7.77-7.03-11.55-16.4-11.55-28.65 0-3 .56-6.08 1.67-9.17 1.15-3.19 2.91-6.62 5.23-10.19 2.37-3.65 4.9-7.26 7.51-10.75 2.63-3.5 5.87-7.79 9.73-12.88l139.24-186.28c8.97-12.07 16.41-20.92 22.13-26.29zm-3.71 241.55h-121.35l121.35-163.97zm-5.62-5.62h-104.58l104.58-141.31z" fill="#1a4a67" fill-rule="evenodd"/><path d="m127.39 404.83c.58-9.24 3.06-20.26 11.8-23.3 12.84-4.47 22.07 11.77 31.86 21.21 2.24 2.16 4.94 4.12 8.04 4.39 3.09.27 6.11-1.19 8.55-3.11 8.54-6.74 11.21-18.44 12.22-29.27 1.02-10.83 1.08-22.22 6.32-31.76 5.23-9.53 18-16.05 27.22-10.31 20.75 12.9 27.69-17.79 40.35-27.83 5.33-4.23 12.74-6.51 19.08-4.04 6.22 2.42 10.04 8.73 12.26 15.02 5.04 14.33 4.26 33-4.16 46.05-7.92 12.27-25.52 17.15-27.74 33.53-1.53 11.27 6.45 22.64 3.42 33.6-2.53 9.14-11.93 14.85-15.49 23.64-4.79 11.85 2.12 26.25-3.39 37.77-3.59 7.49-11.69 11.99-15.47 19.39-4.65 9.12-1.66 20.08-2.23 30.3-1.21 21.9-21.29 42.18-43.98 40.21-19.39-1.68-28.43-23.92-37.09-39.26-23.21-41.16-34.55-89.06-31.57-136.23z" fill="#1a4a67"/><path d="m199.53 525.96c-.23 0-.48-.03-.71-.09-1.5-.39-2.4-1.93-2.01-3.43l29.08-111.8c.39-1.5 1.94-2.4 3.43-2.01 1.5.39 2.4 1.93 2.01 3.43l-29.08 111.8c-.34 1.26-1.47 2.1-2.72 2.1z" fill="#fff"/><path d="m216.53 460.58c-.85 0-1.68-.38-2.23-1.1l-23.6-30.77c-.95-1.23-.71-3 .52-3.94 1.23-.95 2.99-.71 3.94.52l23.6 30.77c.95 1.23.71 3-.52 3.94-.51.39-1.11.58-1.71.58z" fill="#fff"/><path d="m178.09 588.84c-8.85-3.74-17.08-12.07-25.41-18.87-18.18-14.86-18.82-34.05-104.18-48.27-39.68004-6.61-10.4-49.25-32.38-83.08-6.94004-10.68-13.64004-22.5-13.11004-35.23s11.36004-25.79 23.97004-23.95c7.57 1.1 13.42 6.92 19.86 11.05s15.79 6.34 21.13.87c-4.05-8.56-10.9-15.41-16.27-23.21-5.37-7.79-9.35-17.58-6.54-26.62 4.34-13.97 16.99-5.23 22.33-10.96 7.17-7.68 5.3-28.16 10.6-38.74 12.43-24.81 55.93-34.4 72.17-7.56 18.8 31.07 6.71 73.7-2.41 109.01-12.68 49.09 36.33 65.58 52.35 99.46 11.54 24.43 28.57 68.67 3.57 90.78-9.4 8.33-17.79 8.66-25.68 5.32z" fill="#37c1d3"/><path clip-rule="evenodd" d="m176.99 591.43c3.48 1.47 6.86 2.2 10.19 2.2 6.32 0 12.42-2.65 18.48-8 19.45-17.21 18.48-48.87-2.9-94.09-5.79-12.23-15.7-22.26-25.29-31.96-17.87-18.07-34.75-35.14-26.88-65.59l1.01-3.91.003-.01c9.279-35.768 19.795-76.303 1.077-107.24-7.06-11.68-19.84-18.02-34.88-17.43-18.06.72-35.02 10.84-42.21 25.18-2.5379 5.076-3.5283 11.988-4.4876 18.683l-.0024.017-.0101.07c-1.1068 7.709-2.2502 15.671-5.6399 19.31-1.27 1.35-3.75 1.38-6.63 1.41h-.0014c-5.2.06-13.0789.151-16.3286 10.63-3.37 10.83 1.9 21.77 6.91 29.04 1.93 2.8 4.04 5.48 6.09 8.08l.1332.17c3.2915 4.188 6.429 8.18 8.8168 12.6-4.36 2.59-11.13.71-16.08-2.47-1.477-.946-2.9135-1.989-4.3533-3.034-.1588-.115-.3177-.231-.4767-.346-4.85-3.53-9.86-7.17-16.14-8.09-5.74-.84-11.57.96-16.5 5.05-6.25998 5.19-10.349982 13.45-10.679982 21.57-.58 13.89 6.700002 26.32 13.559982 36.88 8.91 13.72 8.97 29.3 9.02 43.05l.0001.014c.0699 19.065.1361 37.077 25.2499 41.256 67.8 11.3 81.3 25.65 93.21 38.32l.005.005c3.068 3.258 5.967 6.337 9.645 9.345 1.96 1.61 3.93 3.3 5.89 5l.053.046c6.404 5.526 13.017 11.232 20.147 14.244zm24.92-9.99c-7.62 6.75-14.65 8.24-22.73 4.82-6.293-2.66-12.537-8.03-18.565-13.214l-.135-.116c-2-1.73-4-3.46-6.01-5.1-3.358-2.746-6.102-5.657-9.002-8.735l-.108-.115-.003-.003c-12.519-13.309-26.712-28.398-96.387-40.007-20.4294-3.4-20.48-16.969-20.55-35.748v-.002c-.05-14.53-.12-30.98-9.93-46.09-6.38-9.83-13.15998-21.34-12.65998-33.58.26-6.48 3.66-13.34 8.64998-17.48 2.61-2.16 6.83-4.59 12.1-3.81 4.9.71 9.15 3.8 13.64 7.07 1.69 1.23 3.37 2.45 5.1 3.56 7.69 4.93 18.29 6.99 24.67.46l1.36-1.4-.84-1.77c-2.77-5.85-6.76-10.92-10.62-15.81l-.1572-.2c-1.9411-2.467-3.9409-5.01-5.7228-7.59-4.3-6.25-8.86-15.52-6.17-24.19 2.039-6.567 5.8062-6.61 11.022-6.67h.008c3.64-.04 7.77-.09 10.67-3.2 4.61-4.94 5.88-13.82 7.11-22.42l.0204-.141c.8936-6.206 1.8157-12.611 3.9396-16.839 6.19-12.38 21.58-21.46 37.4-22.09 7.58-.31 21.66 1.2 29.85 14.72 17.496 28.903 7.295 68.221-1.703 102.904l-.007.026-1.02 3.92c-8.66 33.53 10.14 52.56 28.33 70.95l.018.018c9.244 9.354 18.805 19.029 24.182 30.392 20.17 42.7 21.61 72.13 4.25 87.48z" fill="#1a4a67" fill-rule="evenodd"/><path d="m344.21 512.15c.26-.04.53-.01.81.09.89.32 1.36 1.28 1.7 2.17 3.12 8.11 2.75 6.06 3.62 17.21.78-7.18.23-5.85 2.75-12.62.49-1.32 1.05-2.67 2.12-3.59 6.92-5.91 2.81 16.06 1.89 18.65-3.4 9.61-12.4 13.29-22 11.48-8.41-1.59-17.01-6.58-21.15-14.23-.37-.69-.71-1.58-.25-2.22.31-.44.89-.59 1.43-.67 4.8-.77 9.7.95 13.87 3.46s7.81 5.8 11.8 8.58c2.83 1.97 8.21.97 11.66.84 5.86-.22 7.77-2.81 12.29-6.54.99-.81 2.08-1.59 3.35-1.77 1.26-.19 2.73.39 3.16 1.59.26.72.12 1.51-.09 2.24-2.71 9.28-14.03 9.9-20.03 3.79-5.73-5.83-10.49-16.28-9.5-24.52.2-1.66 1.15-3.75 2.57-3.94z" fill="#8bdeec"/><path d="m120.48 567.93c.25.07.48.21.7.44.67.72.67 1.96.59 3.05-.75 10.06-.18 7.69-4.32 20.06 3.89-7.39 2.8-6.2 8.08-12.4 1.03-1.21 2.14-2.43 3.51-2.96 8.91-3.41-4.55 18.47-6.53 20.87-7.34 8.89-17.16 9.01-25.08 2.97-6.95-5.3-12.56-14.33-12.94-24.32-.03-.9.06-2 .75-2.49.48-.34 1.07-.25 1.6-.12 4.71 1.21 8.4 5.16 11.08 9.64s4.54 9.57 6.94 14.26c1.7 3.33 7.04 4.55 10.23 5.88 5.42 2.26 8.31.29 14.07-1.8 1.26-.45 2.59-.82 3.83-.48s2.31 1.58 2.17 3.06c-.08.88-.56 1.68-1.07 2.37-6.57 8.83-17.14 4.67-19.9-4.46-2.63-8.71-2.33-21.99 2.21-30.43.91-1.69 2.7-3.53 4.08-3.14z" fill="#1a4a67"/><g fill="#fff"><path d="m198.2 600.44c-1.01 0-1.99-.55-2.5-1.51l-83.01-158.87c-.72-1.38-.19-3.07 1.19-3.79 1.39-.72 3.08-.18 3.79 1.19l83.01 158.87c.72 1.38.19 3.07-1.19 3.79-.41.21-.86.32-1.29.32z"/><path d="m156.69 525.41c-.5 0-1-.13-1.46-.41l-60.7-36.98c-1.32-.81-1.75-2.54-.94-3.86.81-1.33 2.54-1.75 3.86-.94l60.7 36.98c1.32.81 1.75 2.54.94 3.86-.53.87-1.46 1.35-2.4 1.35z"/><path d="m133.86 478.02c-.5 0-1-.13-1.46-.41l-60.71-36.98c-1.32-.81-1.75-2.54-.94-3.86s2.54-1.75 3.86-.94l60.71 36.98c1.32.81 1.75 2.54.94 3.86-.53.87-1.46 1.35-2.4 1.35z"/><path d="m173.86 558.26c-.19 0-.37-.02-.56-.06-1.52-.31-2.5-1.79-2.2-3.31l11.71-57.56c.31-1.52 1.8-2.5 3.32-2.19s2.5 1.79 2.2 3.31l-11.71 57.56c-.28 1.33-1.46 2.25-2.76 2.25z"/></g><path d="m1156.5 357.2c1.06-6.24 2.51-12.85 8.5-17.39 7.6-5.73 20.06-6.46 30.42-4.39 10.35 2.08 19.68 6.56 29.91 9.55 2.75.8 5.91 1.48 8.56.44 2.68-1.04 3.96-3.5 4.85-5.78 9.81-26.24-.57-53.76-.4-80.18-.07-7.19.86-15.13 5.88-21.28 13.03-16.91 18.19-7.75 30.17-26.36 8.37-13 10.15-37.38 24.53-45.88 29.73-17.59 29 47.74 31.14 62.72 4.05 28.42 43.51 26.98 36.05 61.43-3.24 14.96-13.12 27.16-19.62 40.58-6.4 13.47-8.49 31 4.48 41.32 8.45 6.72 23.26 10.53 24.41 20.34.66 5.78-4.45 10.39-9.36 14.15-12.25 9.43-25.12 18.26-38.58 26.48-3.4 2.08-7.02 4.29-8.21 7.51-1.64 4.4 1.75 9.27 4.24 13.85 9.19 16.9 5.29 35.52-6.7 49.33-11.9 13.83-30.97 23.49-50.7 31.74-25.38 10.66-52.2 19.51-80.3 26.42-82.44 16.67-53.93-46.48-50.42-69.26 6.38-45.62 13.43-90.75 21.15-135.34z" fill="#1a4a67"/><path d="m1206.7 538.74c-.33 0-.67-.06-1.01-.19-1.45-.55-2.17-2.18-1.62-3.63l94.87-247.83c.55-1.45 2.17-2.19 3.63-1.62 1.45.55 2.17 2.18 1.62 3.63l-94.87 247.83c-.43 1.12-1.49 1.81-2.62 1.81z" fill="#fff"/><path d="m1260.62 397.7c-.98 0-1.94-.52-2.46-1.43l-16.77-29.87c-.76-1.35-.28-3.07 1.08-3.83s3.07-.28 3.83 1.07l16.77 29.87c.76 1.35.28 3.07-1.08 3.83-.43.24-.9.36-1.37.36z" fill="#fff"/><path d="m1274.42 362.72c-1.06 0-2.08-.6-2.55-1.63-.65-1.41-.04-3.08 1.37-3.73l31.1-14.36c1.4-.65 3.08-.04 3.73 1.37s.04 3.08-1.37 3.73l-31.1 14.36c-.38.17-.78.26-1.18.26z" fill="#fff"/><path d="m1151.16 564.96c-7.43-.99-14.8-2.06-20.69-6.62-3.05-2.36-5.41-7.14-2.63-9.8 1.4-1.34 3.52-1.48 5.41-1.9 7.29-1.62 2.21-7.63-1.87-9.62-7.19-3.5-15.66-5.91-19.98-12.64-.27-.42-.53-.89-.51-1.39.04-.75.69-1.31 1.32-1.72 4.29-2.78 12.55-1.17 15.13-6.2 6.3-12.29-21.14-27.42-27.68-33.74-1.25-1.21-2.56-2.52-2.91-4.22-.69-3.3 2.64-6.22 5.96-6.82 5.08-.91 10.3 1.3 15.34-.29 3.97-1.25 6.08-5.5 6.45-9.41 1.12-11.76-6.1-23.27-7.21-34.87-.91-9.49 2.95-28.41 16.3-25.9 6.11 1.15 8.92 8.03 11.6 13.64 2.49 5.2 5.81 10.97 9.97 14.97 3.05 2.93 7.2 5.01 11.42 4.63 8.19-.75 17.89-8.82 19.96 4.29.63 4.02-.22 8.11-.09 12.17s1.62 8.55 5.29 10.31c6.68 3.21 23.6-7.94 24.65 5.16.27 3.28-1.05 6.45-2.15 9.55-5.31 14.99 8.62 12.28 13.71 22.32 1.83 3.61 1.64 7.98.39 11.83-2.01 6.18-6.29 11.52-9.12 17.34-5.75 11.82-8.85 24.77-11.08 37.65-1.63 9.45-1.55 27.38-14.13 29.42-7.76 1.26-12-10.17-15.4-15.11-6.62-9.6-16.51-11.58-27.45-13.03z" fill="#fff"/><path clip-rule="evenodd" d="m1178.46 583.19c3.11 5.48 7.3 12.84 14.31 12.84.55 0 1.12-.04 1.7-.11 12.65-2.039 14.52-16.912 15.76-26.762v-.008c.02-.145.04-.289.06-.433.2-1.628.4-3.156.63-4.507 1.82-10.56 4.7-24.29 10.83-36.9 1.04-2.13 2.27-4.19 3.58-6.37l.05-.078c2.11-3.535 4.3-7.192 5.63-11.262 1.65-5.05 1.46-10.01-.55-13.97-2.3-4.54-6.1-6.87-9.16-8.74-4.76-2.91-6.93-4.24-4.41-11.37l.36-1c1.05-2.9 2.24-6.19 1.95-9.72-.26-3.3-1.44-5.76-3.49-7.31-3.75-2.835-9.07-1.774-14.22-.745l-.03.005-.02.004c-3.22.639-6.86 1.364-8.47.586-2.59-1.25-3.61-4.88-3.7-7.87-.05-1.53.05-3.06.15-4.59v-.055c.16-2.543.33-5.175-.1-7.885-.68-4.28-2.19-7.1-4.63-8.61-3.63-2.25-8-.88-12.23.45-2.08.66-4.24 1.34-6.13 1.51-2.98.28-6.37-1.13-9.21-3.86-3.21-3.09-6.37-7.85-9.39-14.16l-.58-1.23c-2.65-5.63-5.95-12.63-13.03-13.96-4.5-.85-8.61.28-11.88 3.27-6.83 6.24-8.37 19.05-7.73 25.65.5 5.19 2.12 10.29 3.7 15.23 2.11 6.62 4.1 12.87 3.51 19.1-.27 2.87-1.76 6.14-4.5 7-2.21.697-4.66.462-7.25.214l-.04-.004-.03-.003c-2.46-.239-4.99-.485-7.67-.007-2.81.51-5.5 2.21-7.01 4.45-1.2 1.77-1.62 3.75-1.21 5.71.54 2.61 2.37 4.38 3.71 5.67 1.63 1.567 4.29 3.528 7.38 5.805l.07.055c8.77 6.45 23.44 17.25 19.68 24.58-.84 1.65-3.08 2.14-6.67 2.77-2.6.45-5.28.92-7.49 2.35-1.64 1.07-2.52 2.39-2.59 3.93-.07 1.47.64 2.58.95 3.06 3.85 6.003 10.25 8.814 16.46 11.537l.05.023c1.56.68 3.11 1.36 4.6 2.09 2.28 1.12 3.96 3.26 4.05 3.73-.08.09-.52.39-1.56.62l-1.05.21c-1.77.33-3.97.74-5.7 2.4-1.48 1.42-2.2 3.29-2.09 5.43.16 3.03 2.1 6.42 4.94 8.62 6.63 5.13 14.82 6.22 22.04 7.18 10.81 1.43 19.56 3.22 25.52 11.86.63.907 1.29 2.068 2 3.319zm2.47-6.77c-7.25-10.52-18.05-12.74-29.41-14.25l-.07-.009c-6.81-.907-13.85-1.845-19.27-6.031-1.5-1.17-2.7-3.1-2.77-4.48-.03-.61.17-.89.37-1.08.52-.492 1.62-.703 2.8-.929l.06-.011c.42-.08.83-.16 1.23-.25 4.67-1.03 5.67-3.73 5.85-5.25.5-4.25-4.09-8.16-7.1-9.63-1.47-.723-3.02-1.4-4.56-2.076l-.24-.104c-5.4-2.36-10.52-4.61-13.66-8.92 1.25-.637 3.14-.966 4.96-1.285l.03-.005v-.001c3.8-.66 8.53-1.481 10.71-5.739 5.94-11.587-10.47-23.663-21.34-31.663l-.01-.007c-2.96-2.18-5.51-4.06-6.88-5.38-.86-.83-1.93-1.87-2.12-2.78-.04-.17-.15-.67.36-1.42.67-1 2.01-1.82 3.34-2.06 1.91-.338 3.96-.142 6.14.067l.03.003.05.005c3.02.288 6.18.589 9.47-.455 5.55-1.75 8-7.47 8.41-11.83.7-7.38-1.56-14.48-3.75-21.34l-.03-.084c-1.54-4.839-2.99-9.412-3.43-13.976-.55-5.77.95-16.42 5.93-20.97 1.97-1.8 4.25-2.42 7.05-1.9 4.25.8 6.66 5.899 8.99 10.829v.001l.59 1.26c3.36 7.02 6.81 12.18 10.56 15.78 4.02 3.86 8.98 5.8 13.62 5.4 2.43-.214 4.81-.96 7.13-1.683l.18-.057.01-.004c3-.949 6.11-1.935 7.57-1.026.93.58 1.64 2.21 2.03 4.71.33 2.11.19 4.34.04 6.7-.11 1.71-.21 3.42-.16 5.12.19 6.01 2.76 10.78 6.88 12.76 3.31 1.583 7.51.747 11.97-.139l.06-.011.03-.006c3.76-.749 7.99-1.59 9.74-.284.72.54 1.14 1.65 1.28 3.29.19 2.31-.69 4.76-1.63 7.35l-.37 1.04c-4.04 11.42 1.95 15.09 6.77 18.04 2.83 1.73 5.5 3.37 7.08 6.49 1.3 2.58 1.38 6.11.22 9.69-1.15 3.486-3.08 6.724-5.14 10.149l-.02.041c-1.32 2.19-2.67 4.45-3.82 6.8-6.43 13.24-9.43 27.48-11.32 38.41-.26 1.54-.49 3.3-.72 5.19-1.41 11.25-3.22 20.66-11.08 21.93-3.86.6-6.93-4.12-10.23-9.93-.86-1.51-1.66-2.91-2.41-4z" fill="#1a4a67" fill-rule="evenodd"/><path d="m1153.35 460.24 48.8 135.03z" fill="#fff"/><path d="m1202.15 598.08c-1.15 0-2.23-.71-2.64-1.86l-48.8-135.03c-.53-1.46.23-3.07 1.69-3.6 1.46-.52 3.07.23 3.6 1.69l48.8 135.03c.53 1.46-.23 3.07-1.69 3.6-.32.12-.64.17-.96.17z" fill="#1a4a67"/><path d="m1169.05 501.37 8.06-28.44z" fill="#fff"/><path d="m1169.05 504.18c-.25 0-.51-.03-.76-.11-1.5-.42-2.36-1.98-1.94-3.47l8.06-28.44c.42-1.49 1.98-2.36 3.47-1.94 1.5.42 2.36 1.98 1.94 3.47l-8.06 28.44c-.35 1.24-1.48 2.05-2.71 2.05z" fill="#1a4a67"/><path d="m1187.25 550.14 8.06-28.43z" fill="#fff"/><path d="m1187.25 552.95c-.25 0-.51-.03-.76-.11-1.5-.42-2.36-1.98-1.94-3.47l8.06-28.44c.42-1.49 1.98-2.36 3.47-1.94 1.5.42 2.36 1.98 1.94 3.47l-8.06 28.44c-.35 1.25-1.48 2.05-2.71 2.05z" fill="#1a4a67"/><path d="m1176.12 528.04-27.75-8.41z" fill="#fff"/><path d="m1176.12 530.85c-.27 0-.55-.04-.82-.12l-27.76-8.41c-1.49-.45-2.32-2.02-1.87-3.51s2.02-2.33 3.51-1.87l27.76 8.41c1.49.45 2.32 2.02 1.87 3.51-.37 1.21-1.48 1.99-2.69 1.99z" fill="#1a4a67"/><path d="m853.09 502.13c.26.01.52.07.79.22.83.45 1.14 1.48 1.34 2.41 1.81 8.5 1.76 6.42.86 17.57 1.9-6.96 1.15-5.74 4.7-12.03.69-1.22 1.46-2.47 2.66-3.21 7.76-4.75.25 16.3-1.07 18.72-4.87 8.96-14.34 11.18-23.53 7.88-8.06-2.9-15.76-9.17-18.65-17.38-.26-.74-.45-1.67.1-2.23.38-.39.98-.44 1.52-.44 4.87-.01 9.43 2.47 13.15 5.6s6.8 6.96 10.3 10.33c2.48 2.39 7.96 2.25 11.38 2.67 5.82.7 8.12-1.55 13.17-4.53 1.1-.65 2.3-1.24 3.58-1.23s2.63.82 2.87 2.07c.14.75-.12 1.51-.44 2.2-4.14 8.74-15.41 7.57-20.38.59-4.74-6.65-7.79-17.73-5.52-25.71.46-1.62 1.73-3.53 3.17-3.5z" fill="#8bdeec"/><path d="m1091.04 608.96c7.05-7.26 12.86-14.61 21.52-20.16 2.92-1.87 6.33-3.6 9.68-2.72.63.17 1.3.47 1.59 1.08.26.53.17 1.16.06 1.74-7.46 37.06-54 21.24-54.55-11.96-.03-2.06.13-4.23 1.24-5.91 2.04-3.08 6.67-3.27 9.71-1.2s4.73 5.73 5.72 9.36c2.62 9.6 1.35 19.78.05 29.61 1.26-13.01 6.51-25.53 14.81-35.27 1.25-1.46 3.27-2.96 4.83-1.83.75.54 1.06 1.52 1.26 2.44 1.47 6.6-.31 13.59-3.54 19.41-3.21 5.82-7.8 10.67-12.38 15.41z" fill="#37c1d3"/><path d="m1361.15 551.26c4.39-6.86 8.17-14.81 9.14-23.7.23-2.15.26-4.52-.72-6.26-.85-1.51-2.28-2.22-3.67-2.61-9.86-2.78-19.11 6.75-26.22 16.18-12.57 16.66-23.79 35.09-33.41 54.88 5.76-11.84 8.79-34.55 7.42-48.47-.05-.55-.14-1.14-.46-1.49-.33-.35-.8-.33-1.22-.23-3.03.77-4.94 4.66-6.4 8.26-4.5 11.15-8.41 24.03-11.02 36.54 1.64-7.86-3.21-17.32-7.61-22-7.87-8.37-6.19 3.31-4.48 10.17 1.67 6.73 12.8 33.05 20.73 27.17 1.45-1.08 1.81-6.96 3-8.85 2.08-3.28 4.97-4.36 7.95-5.58 8-3.28 16.33-4.63 23.85-9.79 8.79-6.02 16.73-14.23 23.12-24.22z" fill="#8bdeec"/></g></svg>